<svg id="Layer_1" enable-background="new 0 0 511.584 511.584" height="512" viewBox="0 0 511.584 511.584" width="512" xmlns="http://www.w3.org/2000/svg"><circle cx="93.123" cy="93.123" fill="#fee67b" r="92.306"/><path d="m93.123.818c-60.349 0-104.524 57.072-89.351 115.555 27.429-14.945 33.921-73.222 66.968-70.578 77.749 6.22 72.437-19.378 69.547-32.027-13.803-8.223-29.93-12.95-47.164-12.95z" fill="#f7edc4"/><path d="m185.213 86.854c-32.089-3.321-137.728 36.264-173.356 50.075 12.256 22.69 33.738 39.659 59.419 45.892 6.848 1.094 13.87 1.97 20.927 2.597 53.992.456 96.61-44.903 93.01-98.564z" fill="#eed572"/><path d="m511.584 135.741v375.025h-511.584v-340.897c145.6-61.2 324.009-56.825 511.584-34.128z" fill="#aced70"/><path d="m511.584 135.741v375.025h-511.584v-120.05c96.433-143.423 324.009-277.672 511.584-254.975z" fill="#9bd65e"/><path d="m511.584 135.741v375.025h-389.654s202.079-397.722 389.654-375.025z" fill="#9bd65e"/><path d="m511.584 135.741v375.025h-167.613s75.43-340.896 167.613-375.025z" fill="#91c656"/><path d="m0 169.869v25.979c13.3-5.694 34.063-8.914 66.332-6.279 104.115 8.499 167.858-19.831 193.356-36.121 13.751-8.785 55.307-21.483 89.571-31.764-127.232-5.548-246.429 4.962-349.259 48.185z" fill="#d3f4ae"/><path d="m57.833 395.317c84.283-74.011 39.173-81.801 127.596-120.756 88.424-38.954 133.044-52.411 147.918-84.283 6.742-14.448 27.455-32.242 46.043-47.381-152.127 31.717-304.892 137.019-379.39 247.819v57.366c8.121-8.22 24.833-23.788 57.833-52.765z" fill="#d3f4ae"/><path d="m366.635 244.106c8.875-37.192 44.48-74.07 71.757-97.77-163.37 63.137-316.461 364.43-316.461 364.43h109.118c7.559-24.026 9.011-66.786 24.744-115.093 25.142-77.2 95.968-89.241 110.842-151.567z" fill="#aced70"/><path d="m507.311 137.548c-90.23 42.806-163.34 373.219-163.34 373.219h6.935c7.634-6.541 14.486-13.48 18.562-19.123 13.811-19.123 75.43-150.86 73.305-228.415-1.54-56.209 41-103.76 64.538-125.681z" fill="#aced70"/><g fill="#71993c"><path d="m118.478 373.303-7.458 7.457-7.456-7.457c-6.248-6.248-16.378-6.248-22.628-.001-6.248 6.249-6.249 16.379-.001 22.628l18.771 18.771c6.244 6.244 16.381 6.249 22.628 0l18.771-18.771c6.249-6.248 6.249-16.379 0-22.627-6.248-6.248-16.378-6.248-22.627 0z"/><path d="m263.25 417.391-7.458 7.458-7.458-7.458c-6.248-6.248-16.379-6.248-22.627 0-6.249 6.248-6.249 16.379 0 22.627l18.771 18.771c6.249 6.249 16.379 6.248 22.627 0l18.771-18.771c6.249-6.248 6.249-16.379 0-22.627-6.247-6.248-16.378-6.248-22.626 0z"/><path d="m300.792 346.593-7.458 7.457-7.456-7.457c-6.249-6.249-16.379-6.248-22.628-.001-6.248 6.249-6.249 16.379-.001 22.628l18.771 18.771c6.244 6.244 16.381 6.249 22.628 0l18.771-18.771c6.249-6.248 6.249-16.379 0-22.627-6.248-6.248-16.379-6.248-22.627 0z"/><path d="m402.535 440.018 18.771 18.771c6.244 6.244 16.381 6.249 22.628 0l18.771-18.771c6.249-6.248 6.249-16.379 0-22.627-6.248-6.248-16.379-6.248-22.627 0l-7.458 7.457-7.456-7.457c-6.248-6.248-16.378-6.247-22.628-.001-6.248 6.249-6.249 16.378-.001 22.628z"/><path d="m70.294 250.605c6.244 6.244 16.381 6.249 22.628 0l18.771-18.771c6.249-6.248 6.249-16.379 0-22.627-6.248-6.248-16.379-6.248-22.627 0l-7.458 7.457-7.456-7.457c-6.248-6.248-16.378-6.248-22.628-.001-6.248 6.249-6.249 16.379-.001 22.628z"/><path d="m170.9 291.334-18.771 18.771c-6.248 6.249-6.249 16.379-.001 22.628 6.247 6.247 16.377 6.25 22.628.001l18.771-18.771c6.248-6.249 6.249-16.379.001-22.628s-16.378-6.247-22.628-.001z"/><path d="m357.847 270.294c-7.041-5.341-17.078-3.961-22.417 3.079l-18.771 24.75c-8.042 10.604-.317 25.67 12.736 25.67 4.834 0 9.613-2.184 12.76-6.332l18.771-24.75c5.34-7.041 3.961-17.077-3.079-22.417z"/></g><path d="m273.561 96.48c8.727 1.388 16.929-4.555 18.32-13.281 3.684-23.113 32.027-32.159 48.466-15.896 7.812 7.729 20.946 5.459 25.692-4.481 5.433-11.382 17.934-17.94 30.395-15.954 15.654 2.495 26.309 17.185 23.811 32.842-1.39 8.722 4.556 16.927 13.281 18.32 23.826 3.799 22.875 3.725 24.638 3.725 7.726 0 14.525-5.61 15.781-13.482 1.391-8.727-4.556-16.929-13.281-18.32l-8.392-1.338c-5.455-50.764-68.533-72.959-104.516-34.987-36.693-18.698-81.016 4.013-87.477 44.534-1.389 8.725 4.556 16.927 13.282 18.318z" fill="#a2d0ff"/></svg>