<svg height="512pt" viewBox="-41 0 512 512" width="512pt" xmlns="http://www.w3.org/2000/svg"><path d="m86.582031 227.851562s-194.808593 145.195313 0 243.203126c-1.210937-3.628907 64.128907-214.164063 64.128907-214.164063zm0 0" fill="#dfca00"/><path d="m344.207031 227.851562s194.808594 145.195313 0 243.203126c1.210938-3.628907-64.128906-214.164063-64.128906-214.164063zm0 0" fill="#dfca00"/><path d="m372.976562 398.183594c0 87.03125-70.550781 113.816406-157.582031 113.816406s-157.582031-26.785156-157.582031-113.816406 70.550781-201.71875 157.582031-201.71875 157.582031 114.691406 157.582031 201.71875zm0 0" fill="#f4e74d"/><path d="m215.394531 196.464844c-87.03125 0-157.582031 114.691406-157.582031 201.71875 0 64.097656 38.265625 95.515625 93.203125 107.625-12.683594-26.582032-17.53125-53.878906-18.171875-78.90625-1.269531-49.597656 36.289062-92.03125 85.703125-96.480469 63.921875-5.757813 100.417969-39.027344 115.023437-55.855469-28.871093-44.566406-71.113281-78.101562-118.175781-78.101562zm0 0" fill="#eedb00"/><path d="m364.277344 169.886719c0 82.214843-66.648438 106.203125-148.859375 106.203125-82.214844 0-148.859375-23.988282-148.859375-106.203125-.003906-82.214844 66.644531-169.886719 148.859375-169.886719 82.210937 0 148.859375 87.671875 148.859375 169.886719zm0 0" fill="#f9ee80"/><path d="m255.171875 219.175781c-122.371094-57.546875-95.949219-205.109375-95.949219-205.109375-54.351562 28.023438-92.664062 93.492188-92.664062 155.820313 0 82.214843 66.644531 106.203125 148.859375 106.203125 4.578125 0 9.105469-.074219 13.578125-.230469 27.53125-25.410156 26.792968-57.023437 26.175781-56.683594zm0 0" fill="#f4e74d"/><path d="m215.394531 174.128906-62.78125 18.738282s8.265625 34.984374 62.78125 34.984374 62.78125-34.984374 62.78125-34.984374zm0 0" fill="#ff6e42"/><path d="m283.960938 205.109375c-.238282 0-.472657-.003906-.714844-.011719-3.460938-.125-34.597656-1.757812-61.160156-20.667968-3.941407-2.804688-9.441407-2.804688-13.382813 0-26.5625 18.910156-57.699219 20.542968-61.164063 20.667968-10.816406.378906-19.875-8.058594-20.261718-18.859375-.386719-10.804687 8.054687-19.878906 18.859375-20.265625.136719-.007812 22.609375-1.15625 39.863281-13.4375 17.582031-12.515625 41.207031-12.515625 58.789062 0 17.253907 12.28125 39.726563 13.429688 39.949219 13.441406 10.804688.386719 19.203125 9.457032 18.816407 20.261719-.378907 10.5625-9.105469 18.871094-19.59375 18.871094zm0 0" fill="#ff8f71"/><g fill="#454545"><path d="m298.507812 148.945312c-4.269531 0-7.726562-3.457031-7.726562-7.726562v-12.824219c0-4.269531 3.457031-7.726562 7.726562-7.726562 4.265626 0 7.726563 3.457031 7.726563 7.726562v12.824219c0 4.269531-3.460937 7.726562-7.726563 7.726562zm0 0"/><path d="m132.324219 148.945312c-4.265625 0-7.726563-3.457031-7.726563-7.726562v-12.824219c0-4.269531 3.460938-7.726562 7.726563-7.726562 4.269531 0 7.726562 3.457031 7.726562 7.726562v12.824219c0 4.269531-3.457031 7.726562-7.726562 7.726562zm0 0"/></g></svg>